<?xml version="1.0" encoding="iso-8859-1"?>
<!-- Uploaded to: SVG Repo, www.svgrepo.com, Generator: SVG Repo Mixer Tools -->
<svg fill="#000000" version="1.1" id="Layer_1" xmlns="http://www.w3.org/2000/svg" xmlns:xlink="http://www.w3.org/1999/xlink" 
	 viewBox="0 0 512 512" xml:space="preserve">
<g>
	<g>
		<path d="M0,188.529v120.037h408.125V188.529H0z M392.468,292.908H97.073v-16.701H81.416v16.701H56.365V252.2H40.708v40.708H15.657
			v-88.723h376.811V292.908z"/>
	</g>
</g>
<g>
	<g>
		<path d="M392.468,440.341v-124.47h-15.657v88.723H33.401v-88.723H17.745v123.931c-9.942,5.381-16.712,15.905-16.712,27.983
			c0,17.532,14.263,31.795,31.795,31.795s31.795-14.263,31.795-31.795c0-9.888-4.537-18.734-11.638-24.57h11.731v8.432
			c9.394,0,16.138,7.24,16.138,16.138c0,8.898-6.744,16.137-16.138,16.137v15.657c17.745,0,31.795-14.263,31.795-31.795
			c0-9.888-4.47-18.734-11.55-24.57h239.277c-7.101,5.836-11.638,14.682-11.638,24.57c0,17.532,14.263,31.795,31.795,31.795
			c17.532,0,31.795-14.263,31.795-31.795c0-9.888-4.537-18.734-11.638-24.57h12.259v8.432c8.35,0,16.138,7.24,16.138,16.138
			s-7.788,16.138-16.138,16.138v15.657c16.701,0,31.795-14.263,31.795-31.795C408.606,456.095,401.891,445.866,392.468,440.341z
			 M32.827,483.923c-8.898,0-16.138-7.24-16.138-16.138s7.24-16.138,16.138-16.138s16.138,7.24,16.138,16.138
			S41.727,483.923,32.827,483.923z M344.393,483.923c-8.898,0-16.138-7.24-16.138-16.138s7.24-16.138,16.138-16.138
			c8.898,0,16.138,7.24,16.138,16.138S353.293,483.923,344.393,483.923z M376.811,427.558H33.401v-7.307h343.409V427.558z"/>
	</g>
</g>
<g>
	<g>
		<rect x="415.431" y="188.531" width="16.701" height="15.657"/>
	</g>
</g>
<g>
	<g>
		<path d="M440.421,188.335v15.817c0,14.83,10.208,27.323,23.967,30.82v33.091c0,13.127,10.679,23.806,23.806,23.806
			c13.127,0,23.807-10.68,23.807-23.806v-79.728H440.421z M488.193,276.213c-4.494,0-8.149-3.655-8.149-8.149V220.29h-7.828
			c-8.898,0-16.138-7.24-16.138-16.138v-0.161h40.264v64.072h0.001C496.343,272.557,492.687,276.213,488.193,276.213z"/>
	</g>
</g>
<g>
	<g>
		<polygon points="129.431,324.222 129.431,340.923 64.715,340.923 64.715,324.222 49.058,324.222 49.058,356.58 145.088,356.58 
			145.088,324.222 		"/>
	</g>
</g>
<g>
	<g>
		<polygon points="129.431,363.886 129.431,379.543 64.715,379.543 64.715,363.886 49.058,363.886 49.058,395.2 145.088,395.2 
			145.088,363.886 		"/>
	</g>
</g>
<g>
	<g>
		<polygon points="241.117,324.222 241.117,340.923 176.402,340.923 176.402,324.222 160.745,324.222 160.745,356.58 
			256.774,356.58 256.774,324.222 		"/>
	</g>
</g>
<g>
	<g>
		<polygon points="241.117,363.886 241.117,379.543 176.402,379.543 176.402,363.886 160.745,363.886 160.745,395.2 256.774,395.2 
			256.774,363.886 		"/>
	</g>
</g>
<g>
	<g>
		<rect x="56.365" y="164.523" width="175.358" height="15.657"/>
	</g>
</g>
<g>
	<g>
		<path d="M152.395,76.823V61.185h-15.657V76.84c-40.251,4.008-71.793,38.161-71.793,79.331h15.657
			c-0.001-35.489,28.741-64.071,64.07-64.071s64.071,28.582,64.071,64.071h15.657C224.401,114.93,192.746,80.734,152.395,76.823z"/>
	</g>
</g>
<g>
	<g>
		<path d="M280.323,53.853V12.419h-15.657v41.434c-9.292,3.246-15.978,12.093-15.978,22.477v103.856h15.657V76.33
			c0-4.494,3.656-8.149,8.15-8.149c4.494,0,8.149,3.655,8.149,8.149v103.856H296.3V76.33
			C296.3,65.946,289.615,57.099,280.323,53.853z"/>
	</g>
</g>
<g>
	<g>
		<path d="M312.599,100.457v47.773c-0.001,10.465,6.792,19.369,16.197,22.551v9.396h15.657v-9.546
			c9.178-3.308,15.758-12.1,15.758-22.403v-47.772H312.599z M344.553,148.231c0,4.494-3.656,8.149-8.15,8.149
			c-4.494,0-8.149-3.655-8.149-8.149v-32.117h0.001h16.298V148.231z"/>
	</g>
</g>
<g>
	<g>
		<path d="M96.899,147.82h15.657c0-17.745,14.787-31.706,32.532-31.706v-15.657C117.949,100.457,96.899,121.726,96.899,147.82z"/>
	</g>
</g>
<g>
	<g>
		<rect x="313.139" y="260.553" width="55.321" height="15.657"/>
	</g>
</g>
</svg>